<svg width="16" height="9" viewBox="0 0 16 9" fill="none" xmlns="http://www.w3.org/2000/svg">
<path d="M15.9995 3.722C15.67 3.5683 15.2769 3.44815 14.928 3.61259C14.6313 3.75287 14.4592 4.0502 14.3145 4.33009C13.9596 5.01067 13.5886 5.67782 13.1151 6.28122C14.0446 6.71614 14.8777 6.11006 15.2688 5.27444C15.3298 5.13886 16.0209 3.73878 15.9995 3.722Z" fill="url(#paint0_linear)"/>
<path d="M3.20848 4.04888C2.90377 3.84753 2.53142 3.67571 2.16309 3.79048C1.85035 3.8878 1.63873 4.15829 1.45657 4.41468C1.01257 5.03955 0.555172 5.64831 0 6.17922C0.870595 6.74704 1.77668 6.24634 2.28297 5.46575C2.35931 5.34628 3.22991 4.06835 3.20848 4.04888Z" fill="url(#paint1_linear)"/>
<path d="M13.2711 3.26558C12.4883 4.46431 11.8701 5.75499 11.1824 7.00809C10.9058 7.51148 10.593 8.01956 10.135 8.37865C9.67691 8.73773 8.94628 9.02097 8.43665 8.5894C8.86726 7.99741 9.36416 7.48127 9.74857 6.85238C10.133 6.22348 10.4805 5.55901 10.8375 4.90595C11.1315 4.369 11.3732 3.68708 11.8681 3.30048C12.0955 3.12915 12.3764 3.04467 12.6604 3.06221C12.7046 3.0669 13.316 3.19779 13.2711 3.26558Z" fill="url(#paint2_linear)"/>
<path d="M7.73953 1.72391C6.95867 2.92197 6.33853 4.21332 5.65076 5.46575C5.37418 5.96981 5.06144 6.4779 4.60337 6.83631C4.13458 7.20277 3.41466 7.47863 2.90503 7.04706C3.33497 6.45508 3.83255 5.93894 4.21696 5.31004C4.60136 4.68114 4.94826 4.01667 5.30587 3.36361C5.59987 2.82666 5.84163 2.14541 6.33653 1.75814C6.56401 1.58697 6.84484 1.50251 7.12877 1.51987C7.17297 1.52524 7.7844 1.65612 7.73953 1.72391Z" fill="url(#paint3_linear)"/>
<path d="M11.4717 0.188169C10.585 1.42046 10.0057 2.7937 9.4499 4.19714C8.91415 5.55763 8.29468 6.97584 7.28814 8.06249C6.71689 8.6793 5.76661 9.05449 4.94958 8.73837C6.44299 7.2423 7.4944 5.44957 8.34625 3.52663C8.72663 2.66282 9.07822 1.78626 9.49209 0.939894C9.87247 0.158637 10.6607 -0.268235 11.4717 0.188169Z" fill="url(#paint4_linear)"/>
<path d="M7.74559 1.72117V1.72452C7.60552 1.92138 7.47695 2.12621 7.36052 2.33798C6.51203 3.87566 5.99168 6.08184 6.08811 7.43428C6.13097 8.02425 6.28902 8.45246 6.59306 8.59072C6.08476 8.8592 5.48673 8.94847 4.94696 8.73973C4.66703 8.48938 4.55653 7.76584 4.59939 6.84901C4.66758 5.62561 4.92211 4.41986 5.35413 3.27361C5.6267 2.75412 5.87046 2.12589 6.3359 1.76211C6.56387 1.59027 6.84541 1.50534 7.13015 1.5225C7.17435 1.52518 7.76702 1.65204 7.74559 1.72117Z" fill="url(#paint5_linear)"/>
<path d="M11.467 0.186216C10.9491 0.923386 10.5056 1.7103 10.143 2.53536C10.143 2.53536 10.143 2.53536 10.143 2.53536C9.50076 4.23144 9.28646 6.09732 9.4733 7.25646C9.57442 7.88737 9.79542 8.3082 10.1309 8.37733C9.66215 8.74313 8.94224 9.01965 8.4326 8.58808C8.20893 8.36391 8.08905 7.79609 8.06628 7.04436C8.02878 5.85503 8.23906 4.20794 8.669 2.76154C8.93286 2.14808 9.19471 1.53664 9.48737 0.939954C9.86708 0.157355 10.6553 -0.268175 11.467 0.186216Z" fill="url(#paint6_linear)"/>
<defs>
<linearGradient id="paint0_linear" x1="2260.68" y1="157.924" x2="2190.16" y2="285.378" gradientUnits="userSpaceOnUse">
<stop stop-color="#A7A9AC"/>
<stop offset="0.34" stop-color="#898A8D"/>
<stop offset="0.64" stop-color="#747679"/>
<stop offset="0.85" stop-color="#6D6E71"/>
<stop offset="1" stop-color="#6D6E71"/>
</linearGradient>
<linearGradient id="paint1_linear" x1="1883.19" y1="160.45" x2="1816" y2="269.876" gradientUnits="userSpaceOnUse">
<stop stop-color="#A7A9AC"/>
<stop offset="0.34" stop-color="#898A8D"/>
<stop offset="0.64" stop-color="#747679"/>
<stop offset="0.85" stop-color="#6D6E71"/>
<stop offset="1" stop-color="#6D6E71"/>
</linearGradient>
<linearGradient id="paint2_linear" x1="3554.57" y1="328.136" x2="3262.51" y2="718.299" gradientUnits="userSpaceOnUse">
<stop stop-color="#A7A9AC"/>
<stop offset="0.34" stop-color="#898A8D"/>
<stop offset="0.64" stop-color="#747679"/>
<stop offset="0.85" stop-color="#6D6E71"/>
<stop offset="1" stop-color="#6D6E71"/>
</linearGradient>
<linearGradient id="paint3_linear" x1="3169.45" y1="168.936" x2="2840.48" y2="581.837" gradientUnits="userSpaceOnUse">
<stop stop-color="#A7A9AC"/>
<stop offset="0.34" stop-color="#898A8D"/>
<stop offset="0.64" stop-color="#747679"/>
<stop offset="0.85" stop-color="#6D6E71"/>
<stop offset="1" stop-color="#6D6E71"/>
</linearGradient>
<linearGradient id="paint4_linear" x1="11.2246" y1="-0.0389658" x2="5.82615" y2="8.8152" gradientUnits="userSpaceOnUse">
<stop stop-color="#A7A9AC"/>
<stop offset="0.34" stop-color="#898A8D"/>
<stop offset="0.64" stop-color="#747679"/>
<stop offset="0.85" stop-color="#6D6E71"/>
<stop offset="1" stop-color="#6D6E71"/>
</linearGradient>
<linearGradient id="paint5_linear" x1="1953.71" y1="568.426" x2="2102.38" y2="568.426" gradientUnits="userSpaceOnUse">
<stop stop-color="#BCBEC0"/>
<stop offset="0.09" stop-color="#C7C9CA"/>
<stop offset="0.3" stop-color="#D8DADB"/>
<stop offset="0.51" stop-color="#E3E4E5"/>
<stop offset="0.77" stop-color="#E6E7E8"/>
</linearGradient>
<linearGradient id="paint6_linear" x1="8.06293" y1="4.4046" x2="11.467" y2="4.4046" gradientUnits="userSpaceOnUse">
<stop stop-color="#BCBEC0"/>
<stop offset="0.09" stop-color="#C7C9CA"/>
<stop offset="0.3" stop-color="#D8DADB"/>
<stop offset="0.51" stop-color="#E3E4E5"/>
<stop offset="0.77" stop-color="#E6E7E8"/>
</linearGradient>
</defs>
</svg>
